<svg xmlns="http://www.w3.org/2000/svg" viewBox="0 0 128 128" width="128" height="128">
  <defs>
    <linearGradient id="bg" x1="0" y1="0" x2="1" y2="1">
      <stop offset="0%" stop-color="#252526"/>
      <stop offset="100%" stop-color="#1a1a1a"/>
    </linearGradient>
    <linearGradient id="edge" x1="0" y1="0" x2="1" y2="1">
      <stop offset="0%" stop-color="#ffe066"/>
      <stop offset="100%" stop-color="#c8960c"/>
    </linearGradient>
    <filter id="glow" x="-20%" y="-20%" width="140%" height="140%">
      <feGaussianBlur stdDeviation="2.5" result="coloredBlur"/>
      <feMerge>
        <feMergeNode in="coloredBlur"/>
        <feMergeNode in="SourceGraphic"/>
      </feMerge>
    </filter>
  </defs>
  <rect width="128" height="128" rx="20" fill="url(#bg)"/>
  <rect x="1" y="1" width="126" height="126" rx="19" fill="none" stroke="#f5d44f" stroke-width="0.5" stroke-opacity="0.2"/>
  <g filter="url(#glow)">
    <polygon points="64,14 102,36 64,58 26,36" fill="#f5d44f" fill-opacity="0.18"/>
    <polygon points="64,58 102,36 102,80 64,102" fill="#f5d44f" fill-opacity="0.10"/>
    <polygon points="64,58 26,36 26,80 64,102" fill="#f5d44f" fill-opacity="0.06"/>
    <g fill="none" stroke="url(#edge)" stroke-width="2.5" stroke-linejoin="round" stroke-linecap="round">
      <polygon points="64,14 102,36 64,58 26,36"/>
      <line x1="26" y1="36" x2="26" y2="80"/>
      <line x1="102" y1="36" x2="102" y2="80"/>
      <line x1="64" y1="58" x2="64" y2="102"/>
      <line x1="26" y1="80" x2="64" y2="102"/>
      <line x1="64" y1="102" x2="102" y2="80"/>
    </g>
  </g>
  <g transform="translate(18,108)">
    <line x1="0" y1="0" x2="22" y2="0" stroke="#e74c3c" stroke-width="2" stroke-linecap="round"/>
    <line x1="0" y1="0" x2="0" y2="-22" stroke="#2ecc71" stroke-width="2" stroke-linecap="round"/>
    <line x1="0" y1="0" x2="-11" y2="11" stroke="#3498db" stroke-width="2" stroke-linecap="round"/>
  </g>
</svg>
